PathFileType	4	(X/Y/Z)	T1_P2_Vision_Movement_0_0-735.trc
DataRate	CameraRate	NumFrames	NumMarkers	Units	OrigDataRate	OrigDataStartFrame	OrigNumFrames
60	60	7	27	m	60	275	735
Frame#	Time	RHip			RKnee			RAnkle			RBigToe			RSmallToe			RHeel			LHip			LKnee			LAnkle			LBigToe			LSmallToe			LHeel			Neck			Head			Nose			RShoulder			RElbow			RWrist			RThumb			RIndex			RPinky			LShoulder			LElbow			LWrist			LThumb			LIndex			LPinky		
		X1	Y1	Z1	X2	Y2	Z2	X3	Y3	Z3	X4	Y4	Z4	X5	Y5	Z5	X6	Y6	Z6	X7	Y7	Z7	X8	Y8	Z8	X9	Y9	Z9	X10	Y10	Z10	X11	Y11	Z11	X12	Y12	Z12	X13	Y13	Z13	X14	Y14	Z14	X15	Y15	Z15	X16	Y16	Z16	X17	Y17	Z17	X18	Y18	Z18	X19	Y19	Z19	X20	Y20	Z20	X21	Y21	Z21	X22	Y22	Z22	X23	Y23	Z23	X24	Y24	Z24	X25	Y25	Z25	X26	Y26	Z26	X27	Y27	Z27
276	4.6	445.3723720885499	3684.5137973495393	652.4853967460841	837.2262655398288	3716.8943981535253	653.5620090102402	1220.2250490723704	3734.535476123441	695.5908028578938	1287.7481685167072	3627.7281374087565	644.7645038297188	1288.2202594757064	3686.2518783990545	606.9487447496778	1284.3784498924247	3792.937556939829	744.7378530995796	455.97540536450913	3629.050693490654	856.9915209912967	853.3206838937161	3621.947591434688	849.9614907333114	1235.2799110833548	3677.614469207801	855.0052888793805	1313.8225701730144	3564.8614608250627	812.5128997140001	1286.7485132577103	3536.5046131645986	846.0113364067997	1269.095070019023	3719.776728096559	862.4147533043906	-128.77706330214977	3626.323049448492	770.4442376895629	-384.34620475581994	3574.0419684947565	761.7679104632692	-237.9629738307345	3470.1715758744285	727.2538681405244	-49.741423178608215	3734.7646192747816	636.5510146411332	197.18235233137358	3820.853285901305	551.9981530949478	116.41129702247135	3630.823872094923	427.21438636015375	44.454929224134396	3481.8912297451275	393.41147743303856	60.660920555823424	3485.4738485616745	379.62488125793266	98.12439334483709	3517.6952393134848	395.5732701742954	-34.401194663910424	3586.1343979881135	913.2331192463591	224.6474714949931	3559.8653847630117	969.000859462142	480.0525276697207	3551.121153091838	960.2350775704338	579.1233151286738	3530.9784910850653	921.0939402402057	610.022556802985	3524.0540789957267	937.8624696146015	602.903470167843	3494.084142831865	971.3933645137778
277	4.616666666666666	444.74856703953054	3682.6508790766884	652.6311985371601	838.3514852821596	3715.278171929973	654.4182598455573	1222.5070902707657	3738.154299626613	698.6334899551069	1292.23892744339	3637.5452530674515	648.7057515619207	1287.9030327740008	3686.721207952276	608.5063579097875	1285.346455652765	3793.0301501841077	744.7075319108337	456.2266086408623	3627.3229956668047	856.5433746496782	857.8482464181265	3628.3539896427883	855.5211859587505	1236.1597087779323	3676.361107841204	854.5386694430198	1312.3734409643982	3563.9563073721883	812.3279400064947	1287.6948987104445	3536.0787021908072	846.4493227550238	1267.5799819331494	3719.1843224366703	862.2187328661416	-129.79721270624844	3632.5952466114813	775.8419398945467	-385.77778599793703	3573.0732032852184	761.2663624989136	-238.43959988815885	3469.7951264800395	727.1220368208355	-49.84224354370175	3734.7133895814804	636.5858475195705	198.59549441980346	3817.73965841074	546.0523453709518	109.75884956061802	3625.607747438119	422.1092407675847	28.849099322591474	3480.569982640868	395.8076626444369	46.082828291410976	3486.663991398432	383.8360147155846	91.48242036205639	3504.0352377933596	390.7986816067166	-35.18044180036799	3586.5618261235254	913.4286567309724	224.64615582337407	3559.9953426420266	969.1151026390596	480.0280849685821	3551.170218809078	960.4230807761119	579.9147795166095	3530.298483011555	920.8134385651042	609.9457735977592	3523.965791993681	937.8462810851184	605.3763116204691	3502.280997582205	974.6584010104983
278	4.633333333333334	443.9244436059896	3678.573642435422	650.545761247208	837.626698077913	3711.9686415234146	654.8059790432677	1223.128689222843	3741.133126306631	701.0936439023975	1296.4113762621876	3647.016402404215	652.9434420741484	1287.388631064618	3688.1566366229104	609.2885478601809	1284.5122649942853	3794.486662270231	746.383416951928	456.6411078152512	3624.605349575086	855.7643409980212	859.5264562079375	3632.187083659571	859.2828056438789	1234.2737791783222	3674.506872864938	853.8257035339574	1310.752452831965	3563.0349426812713	812.1246984558401	1287.2168124454656	3536.5358707527307	846.2157435955971	1266.0584768579997	3720.039161405147	862.5235600833681	-130.16144092993636	3637.105170163125	779.8149412869012	-386.79361118346065	3571.956397580248	760.8126128059012	-239.47703302413817	3468.718769483035	726.6568696777546	-50.50609326486604	3734.2145351074446	636.3923316733892	198.48476716102797	3813.8199221587365	540.4588652385477	104.8140804607369	3621.831703300312	419.3154689745068	13.55589995756054	3474.5122041173145	396.7278668749889	29.819948027375542	3480.443076478364	383.81109467046497	86.91181811785054	3492.6456860979138	387.0886517950664	-35.634311752176934	3586.487690240957	913.2575702282692	224.58612922230623	3560.147866308126	969.2206194498461	479.97372171000785	3550.9804544337776	961.0505356088948	580.5338244541404	3528.8639640304227	919.7637048128836	610.2482422860955	3523.4723745468855	937.4120638607533	605.4819406919457	3507.1758101268147	975.9279311367167
279	4.65	442.50633635531835	3673.32363021251	646.1798951269977	836.1805167291393	3711.4282011023633	655.4215443993696	1223.2527749510618	3744.1370382269024	703.5047059294841	1297.8503282146391	3650.6588577759194	654.6884565792127	1287.3834115772984	3688.8799558229316	608.4207271809385	1283.8898411731	3798.773131221152	750.5680893787993	456.9231391768168	3623.1114952754583	855.3094208712171	858.5719545522145	3632.9533521162325	860.4179056597876	1231.3362119256303	3673.4366951057373	853.4508213997694	1309.89067986379	3562.5704999317018	812.0038053078855	1285.4061885577391	3537.231686489915	845.4185783557489	1265.868883365984	3723.197483662914	863.5807833254157	-130.13823763855652	3638.9468287817863	781.4194542085261	-386.98233317412803	3569.283651027539	760.0394415687886	-240.89299700417757	3467.4393996734425	726.1118469416153	-51.93168890622561	3733.1090096891307	635.911449130445	197.9230642991891	3806.845615459562	533.0864950342276	100.66929354720051	3617.356856300703	417.8709593971879	-0.04839745266599449	3467.26329512098	397.41773190316127	14.038351933819712	3472.033562916018	383.2367070240938	82.21300493948952	3482.497673219853	384.42023720735654	-35.270212098534884	3586.156498120041	913.0388250991001	224.62396185997693	3560.182743855941	969.2534311692509	479.9184182888264	3550.436753010632	962.1688497760389	580.8969981768262	3526.5174447676354	917.7558658180576	611.1456689147889	3522.277985731823	936.571567197501	604.6133325367412	3507.1405179412704	975.6814696481945
280	4.666666666666667	441.1457222729373	3669.5416131914308	642.1764217922563	835.530225791279	3715.6704935365583	656.5433010329918	1223.8278075414846	3746.8784439167357	705.6843549436347	1295.7848270214422	3646.747744906751	652.6901507069641	1287.9606110333623	3688.2028744872787	606.7105905368466	1284.143022017386	3804.226556112954	755.760524784854	457.1303662965808	3624.1371476945537	855.5081981223677	857.0307953021999	3632.4538304614475	860.197282770665	1229.468333032049	3673.8430838760883	853.777797078832	1309.6567779726233	3562.4262791983456	811.8538897643115	1283.6467033577012	3537.5296165099617	844.6708783632613	1266.293357996459	3726.737418960775	864.6960340538112	-130.0539990141637	3639.1916544520695	781.5593020637851	-386.6411521725783	3563.659224677116	758.4696718731426	-241.87021997021083	3466.78053438534	725.8577619383917	-53.679604719203546	3731.8357545954277	635.3200192925045	197.33822102819255	3795.541505193227	522.5256264227569	96.53819557731009	3610.1061712773044	416.2935908551776	-11.327537619514692	3461.7501594618834	399.3011449566481	0.3926531905457815	3464.2862284132098	383.87406768246694	75.04412935659947	3472.1414042599336	381.93067075219847	-34.397418720508675	3587.3318114567865	914.2420543399501	225.2353031475842	3559.844465957069	969.0731959077754	480.00518285948004	3549.7639122520422	963.0808135002633	581.1262479494667	3523.3670798665225	914.969798354776	612.3646778092298	3520.655616959725	935.5353772234358	603.936820433108	3501.8801816199093	974.3829530067662
281	4.683333333333334	441.17256402431826	3669.352410739644	640.7496243403598	836.2345100783297	3720.786848112317	657.1030248847599	1224.0295936053062	3747.7049810213566	706.3939268705994	1291.6428687390749	3638.0802395847295	648.6282109497798	1288.543029090688	3687.109236454562	605.461617215039	1284.3203446693688	3807.4928653611682	759.0524973023329	457.7300379280524	3625.775203309036	855.7026597251431	856.9072151695083	3632.5230722816614	860.0200287334903	1229.1095357094587	3675.110031537574	854.4309501920278	1309.6793540189	3562.4667992161076	811.606235213175	1282.7951194071866	3537.480618123518	844.310464649395	1266.2289440028353	3728.4654794749877	865.1411976485981	-130.01619086509956	3638.9716966606366	781.3220430911548	-386.54422448838073	3556.5467210389497	756.4857294892068	-241.798914889193	3467.29216513007	726.1201927694359	-54.92244157588538	3731.232062010662	634.9430403697701	195.86335936436544	3780.9313528654275	509.24910109541906	92.33168635580247	3601.1822125339795	414.2712626453582	-19.52709211319546	3459.420973806219	402.3869034017186	-10.146487737728414	3458.9043878293305	385.181357390334	64.56528813391591	3463.40064657477	379.7701205461208	-33.58193799801448	3591.5024027269324	918.0876760220273	226.8480393087587	3559.030357069375	968.5914937508544	480.4211050839248	3549.3118078600814	962.7784522399639	581.9066979826774	3520.6300493720223	912.7644523617564	613.3356774205515	3519.301598703638	934.7238559711118	603.4724984116543	3492.535679910426	972.2267299476915
282	4.7	442.4777849738405	3671.829970837107	641.754491060662	837.5104011269896	3721.01995929924	655.9843271841254	1222.7517637696933	3745.659700839745	704.959668043287	1288.35016878805	3630.3204401417784	645.4069085097974	1288.6034018731375	3686.926011702898	605.239451317133	1283.7864431363578	3807.0054060207044	758.9144451168183	458.72034052812387	3625.965703225065	855.3337698618784	858.2132113606655	3633.182628104374	859.9755119037911	1229.4966251259782	3676.297561077784	854.8449182621999	1309.8332306415696	3562.7442903932806	811.421292329116	1282.7848231174285	3537.437854818284	844.3119927877497	1266.0422041549805	3728.6251913792294	865.1204346865993	-129.90632017684243	3638.6360555552383	781.1215980474586	-387.230859851166	3551.4639828439263	755.1666269380515	-240.82389530622694	3468.713349167325	726.780569798871	-55.369205489081246	3731.555101904843	634.9047514633689	192.4650489492768	3766.251079986607	496.0282675529073	88.29722464384787	3593.666212502029	412.41422940766364	-24.410104492686152	3459.663459426397	406.1563905714829	-17.642389069034827	3456.767002728664	386.4045440234486	51.199305778092175	3458.6092327113474	378.6819353598209	-33.03339843638916	3597.388308795137	923.4262370041201	229.0513940379705	3558.0002368159967	967.9560587566264	481.0691152306405	3549.1747794818857	961.3331937364156	583.4919933497283	3519.690204345964	912.4608971740422	613.791965784189	3518.587857477014	934.3336799204233	602.9673961506938	3482.478314350995	969.6259204591937
